<?xml version="1.0" encoding="utf-8"?>
<!-- Generator: Adobe Illustrator 23.0.2, SVG Export Plug-In . SVG Version: 6.00 Build 0)  -->
<svg version="1.1" xmlns="http://www.w3.org/2000/svg" xmlns:xlink="http://www.w3.org/1999/xlink" x="0px" y="0px"
	 viewBox="0 0 709.97 653.29" style="enable-background:new 0 0 709.97 653.29;" xml:space="preserve">
<style type="text/css">
	.st0{fill:#FFEC00;}
	.st1{fill:#45D62F;}
	.st2{fill:none;stroke:#231F20;stroke-width:2;stroke-linecap:round;stroke-linejoin:round;stroke-miterlimit:10;}
	.st3{fill:#E72A8B;}
	.st4{fill:#808080;}
	.st5{fill:#45D62F;stroke:#000000;stroke-width:2;stroke-linecap:round;stroke-linejoin:round;}
	.st6{fill:#FFFFFF;stroke:#000000;stroke-width:2;stroke-linecap:round;stroke-linejoin:round;stroke-miterlimit:10;}
	.st7{fill:none;stroke:#000000;stroke-width:2;stroke-linecap:round;stroke-linejoin:round;stroke-miterlimit:10;}
	.st8{fill:#031F43;}
	.st9{fill:#FFFFFF;}
</style>
<path class="st0" d="M450.52,468.83c0,0,58.96-21.11,66.93-27.29c7.97-6.17,56.57-26.09,64.93-22.51s13.19,14.74,11.67,21.81
	c-3.3,15.4-23.82,31.18-35.37,35.16c-11.55,3.98-52.78,6.17-64.74,7.57C481.99,484.96,450.52,468.83,450.52,468.83z"/>
<path class="st1" d="M506.1,470.4c0,0-14.12,2.37-13.32,12.08s6.03,11.34,10.55,11.48c4.52,0.14,28.5,1.53,36.9,2.6
	c8.41,1.07,19.51-2.43,20.48-12.83s-4.84-14.91-19.49-16S506.1,470.4,506.1,470.4z"/>
<path class="st2" d="M545.98,468.44c0,0,9.43,1.05,10.05,13.76c0.62,12.71-11.03,14.25-11.03,14.25"/>
<path class="st2" d="M510.39,476.81c0,0-4.76,6.11-0.03,12.39"/>
<path class="st2" d="M516.6,476.53c0,0-4.76,6.11-0.03,12.39"/>
<path class="st2" d="M523.38,476.46c0,0-4.76,6.11-0.03,12.39"/>
<g>
	<path class="st1" d="M433.85,470.4c0,0,14.12,2.37,13.32,12.08s-6.03,11.34-10.55,11.48c-4.52,0.14-28.5,1.53-36.9,2.6
		c-8.41,1.07-19.51-2.43-20.48-12.83s4.84-14.91,19.49-16S433.85,470.4,433.85,470.4z"/>
	<path class="st2" d="M393.97,468.44c0,0-9.43,1.05-10.05,13.76s11.03,14.25,11.03,14.25"/>
	<path class="st2" d="M429.55,476.81c0,0,4.76,6.11,0.03,12.39"/>
	<path class="st2" d="M423.35,476.53c0,0,4.76,6.11,0.03,12.39"/>
	<path class="st2" d="M416.57,476.46c0,0,4.76,6.11,0.03,12.39"/>
</g>
<path class="st0" d="M390.37,419.63c0,0-11.55,0-15.54,11.75c-3.98,11.75-2.39,20.91,16.93,35.85
	c19.32,14.94,54.38,25.7,69.52,29.08s36.05,6.53,35.85,5.73c-0.2-0.8,1.44-6.58,2.88-15.21c0.87-5.19,1.85-17.05,1.85-17.05
	s-54.72-14.9-58.1-23.67c-3.39-8.76-7.97-15.54-14.54-18.33C422.63,425.01,389.97,420.43,390.37,419.63z"/>
<path class="st3" d="M402.33,352.44c0,0,31.53-36.07,40.73-36.07c9.2,0,72.95-0.95,79.61,0.95c6.66,1.9,42.96,33.34,42.96,33.34
	l-22.09,37.62l-6.95-7.37l-14.56,55.99c0,0-40.28,6.03-52.01,6.03c-11.74,0-28.86-9.51-28.86-9.51l-8.45-55.45L419.5,389.8
	L402.33,352.44z"/>
<path d="M456.12,434.06c0,0,5.37-0.36,9.48,0.72c4.11,1.07,6.26,4.83,6.26,4.83l21.82-0.36c0,0,3.76-4.83,9.48-5.37
	s13.06,3.22,13.06,3.22s4.29,16.46,0.36,20.21c-3.94,3.76-12.34,2.33-15.21,2.86s-39,2.5-39,2.5s-13.24-3.04-14.31-10.02
	c-1.07-6.98,2.33-15.38,3.04-16.1C451.82,435.85,456.12,434.06,456.12,434.06z"/>
<path class="st4" d="M113.84,397.23c1.23,0.41,38.92,63.09,45.89,70.06s24.99,20.9,42.61,24.99s55.31,3.69,62.28,2.05
	s61.87-77.84,60.23-83.99c-1.64-6.15-36.05-12.7-52.44-11.88c-16.39,0.82-84.81,15.98-99.97,10.24S113.84,397.23,113.84,397.23z"/>
<path class="st5" d="M208.46,273.87c0,0,6.41,8.4,19.23,6.63s22.32-11.05,25.64-17.24s4.2-18.34,4.2-18.34s40.22-1.99,56.14,8.62
	c15.91,10.61,32.89,55.73,32.89,55.73l-39.3,21.84l8.18,63.43l-21.66,15.47l-94.81-0.22l-26.74-28.53l-1.59-5.44
	c0,0-13.01-43.6-13.23-69.9s34.48-45.97,34.48-45.97L208.46,273.87z"/>
<g>
	<path class="st1" d="M202.85,465.02c0,0,16.22,2.72,15.31,13.88c-0.91,11.16-6.92,13.03-12.12,13.19s-32.74,1.76-42.39,2.99
		c-9.66,1.23-22.41-2.79-23.53-14.74s5.56-17.13,22.38-18.38C179.31,460.71,202.85,465.02,202.85,465.02z"/>
	<path class="st2" d="M157.04,462.77c0,0-10.83,1.2-11.54,15.8c-0.71,14.6,12.67,16.37,12.67,16.37"/>
	<path class="st2" d="M197.91,472.38c0,0,5.47,7.02,0.04,14.24"/>
	<path class="st2" d="M190.79,472.06c0,0,5.47,7.02,0.04,14.24"/>
	<path class="st2" d="M183,471.98c0,0,5.47,7.02,0.04,14.24"/>
</g>
<path class="st6" d="M500.87,319.76c0,15.6-9.58,30.35-21.4,30.35s-21.4-14.75-21.4-30.35c0-15.6,9.58-28.26,21.4-28.26
	S500.87,304.16,500.87,319.76z"/>
<path d="M465.87,284.15c0,0-21.6,9.61-18.35,27.67c4.45,24.69-8.29,33.51-8.29,33.51s3.11,6.11,16.92,9.27
	c6.82,1.56,10.24-0.61,10.24-0.61s-2.66-14.31-4.5-20.82C456.29,313.33,465.87,284.15,465.87,284.15z"/>
<path d="M498.27,315.32c0.23-5.76-5.48-11.54-11.24-11.28c-2.26,0.1-4.86,0.57-7.78,1.66c-11.66,4.35-24.21-3.13-24.21-3.13
	s-1.15-9.82,8.18-20.57c10.54-12.13,39.1-8.34,48.67,5.8c10.22,15.1,4.99,23.49,14.4,36.85c13.18,18.7,9.95,30.06,9.95,30.06
	s-16.09,4.36-25.4,9.08c-14.05,7.12-17.51-9.32-17.51-9.32L498.27,315.32z"/>
<path class="st7" d="M472.66,320.51c-0.47,2.19-1.77,6.45-1.77,6.45s3.21,1.93,5.33,0.91"/>
<path class="st7" d="M475.63,335.82c0,0,3.78-0.16,6.3-1.52s2.89-2.78,2.89-2.78s-1.81-3.15-3.7-1.63s-0.88,3.73-0.88,3.73"/>
<circle class="st8" cx="485.75" cy="316.4" r="1.63"/>
<circle class="st8" cx="467.42" cy="316.4" r="1.63"/>
<path class="st6" d="M405.59,359.69c0,0-15.66,16.23-23.89,26.25c-6.85,8.33-10.91,16.28-10.68,22.42
	c0.15,3.92,25.04,19.22,43.25,24.79s24.28,7.08,24.03,9.11c-0.25,2.02-1.34,13.9,2.05,17.6c3.39,3.7,10.58,3.39,10.58,3.39
	s13.33,2.6,14.07,1.34c1.36-2.31-3.6-4.21-5.44-5.03c-1.85-0.82-7.7-5.75-7.7-5.75l0.21-12.22c0,0,5.03,4.83,7.91,4.42
	s1.34-4.31-0.72-10.07c-2.05-5.75-4.83-10.89-7.29-10.68c-2.47,0.21-4.62,1.13-5.85,0.41s-21.37-7.5-27.43-13.87
	c-6.06-6.37-10.92-12.89-10.92-12.89l10.81-11.05"/>
<path class="st6" d="M545.03,385.89l13.41,12.93c0,0-6.44,8.05-14.31,12.7c-7.87,4.65-22.9,14.49-25.58,14.49
	c-2.68,0-8.94-0.36-9.48,2.5s-3.4,10.02-4.83,11.63c-1.43,1.61,0,5.01,1.61,5.55c1.61,0.54,7.16-4.29,7.16-4.29
	s1.79,10.2,0.72,11.99c-1.07,1.79-2.68,5.72-4.29,5.72s-7.16-0.36-8.05,1.07s-1.43,4.11-0.72,4.47c0.72,0.36,11.45,0.36,13.06,0
	c1.61-0.36,3.04-1.61,3.04-1.61s3.04,1.61,5.9,0s5.37-5.72,5.37-5.72l1.43-15.56c0,0,35.06-12.16,43.47-15.92
	s18.42-11.99,21.29-18.07c2.86-6.08-23.37-39.43-32.85-49.8"/>
<path class="st7" d="M462.39,314.23c0,0,2.99-4.49,6.53-5.44"/>
<path class="st7" d="M481.57,312.24c0,0,5.19-1.47,8.5,0.11"/>
<path class="st6" d="M220.99,346.74v-2.33c0,0,2.83,1.33,5.32,0.66s2.83-3.32,1.5-4.32c-1.33-1-2.83-8.14-6.81-6.98
	s-7.64,15.62-7.64,15.62L220.99,346.74z"/>
<path class="st6" d="M279.71,336.26l28.58,3.18l-3.86-9.3l38.33-19.05c0,0,6.58,29.94,5.9,44.23
	c-0.68,14.29-14.52,21.09-22.68,22.23c-8.17,1.13-46.72-20.19-49.45-20.64C273.81,356.44,279.71,336.26,279.71,336.26z"/>
<path class="st7" d="M308.29,339.43c0,0,16.1-0.23,23.59,4.99"/>
<path d="M262.51,326.58l-58.61,26.68l8.84,16.19c0,0,22.63-10.19,23.38-11.54c0.75-1.35,4.8-4.65,8.24-6.6
	c3.45-1.95,15.74-2.25,15.74-2.25s10.19-5.1,10.49-9.44C270.9,335.28,262.51,326.58,262.51,326.58z"/>
<path class="st4" d="M248.22,458.28c0-1.64,34.01-42.61,55.31-60.64c21.3-18.03,57.36-42.61,73.34-31.14
	c15.98,11.47,6.56,43.02-0.41,54.08s-53.26,55.31-60.64,59.41s-76.71,13.6-76.71,13.6l-0.31-23.03L248.22,458.28z"/>
<path class="st6" d="M235.37,446.11c0,0,11.7,10.24,23.4,14.26c11.7,4.02,31.08,8.78,31.08,8.78l-25.24,25.19
	c0,0-40.21-17.51-46.79-24.09C211.24,463.66,235.37,446.11,235.37,446.11z"/>
<path class="st6" d="M252.07,332.12c0,0,0.66-3.49-0.33-4.99s-4.15-4.65-1.16-7.31c2.99-2.66,8.97-0.66,10.47,2.16
	c1.5,2.83,2.66,4.65,4.15,3.82s5.65-3.49,7.64-1.33c1.99,2.16,4.32,5.65,5.48,5.98s4.65,3.82,4.99,5.48c0.33,1.66,0.33,5.15,1,7.64
	c0.66,2.49,0.17,8.97-0.83,10.64c-1,1.66-12.63,8.64-14.46,9.14c-1.83,0.5-6.32-3.66-6.32-3.66s-2.83,0.17-4.49-1.16
	c-1.66-1.33-2.66-2.99-2.66-2.99s-2.33,0.66-3.99-1.5c-1.66-2.16,2.99-4.15,5.48-5.82c2.49-1.66,9.31-8.48,9.31-8.48
	s-11.47,6.15-14.62,7.15c-3.16,1-4.15-1.66-3.66-2.99c0.5-1.33,14.62-10.47,15.12-11.8c0.5-1.33-0.83-3.32-1.99-2.66
	C260.04,330.12,252.07,332.12,252.07,332.12z"/>
<path class="st6" d="M212.11,362.9c0,0,6.72-4.19,11.2-5.36c4.49-1.16,10.47-4.15,9.97-6.48c-0.5-2.33-12.96-1.83-19.78,1.5
	c-6.81,3.32-18.78,7.64-22.77,11.97c-3.99,4.32-15.46,20.77-15.46,20.77l17.28,14.79c0,0,31.74-10.3,33.74-12.8
	c1.99-2.49,0.33-5.15,0.33-5.15s7.48-2.99,8.14-6.32s-0.66-5.32-0.66-5.32s2.16-2.83,2.16-4.65s3.16-5.32,1.99-7.48
	c-1.16-2.16-3.99-1.83-5.65-0.66c-1.66,1.16-6.15,4.82-9.47,5.65S212.11,362.9,212.11,362.9z"/>
<path class="st4" d="M244.54,452.13c0,0-70.06-80.3-93-93.41c-22.94-13.11-40.56-16.39-48.76-4.51s-2.87,33.19,15.16,52.03
	s105.7,81.53,105.7,81.53L244.54,452.13z"/>
<g>
	<path class="st1" d="M273.44,468.68c0,0-16.22,2.72-15.31,13.88c0.91,11.16,6.92,13.03,12.12,13.19s32.74,1.76,42.39,2.99
		c9.66,1.23,22.41-2.79,23.53-14.74c1.12-11.95-5.56-17.13-22.38-18.38C296.97,464.36,273.44,468.68,273.44,468.68z"/>
	<path class="st2" d="M319.25,466.43c0,0,10.83,1.2,11.54,15.8c0.71,14.6-12.67,16.37-12.67,16.37"/>
	<path class="st2" d="M278.37,476.04c0,0-5.47,7.02-0.04,14.24"/>
	<path class="st2" d="M285.49,475.72c0,0-5.47,7.02-0.04,14.24"/>
	<path class="st2" d="M293.28,475.64c0,0-5.47,7.02-0.04,14.24"/>
</g>
<path class="st2" d="M245.52,449.21l-21.88,38.57c0,0-86.72-61.02-102.69-77.87"/>
<path class="st2" d="M250.22,453.42c0.81-0.27,42.61-52.05,71.19-69.04"/>
<path class="st2" d="M167.66,366.2c0,0-8.76-26.85-10.65-52.52s18.6-41.45,18.6-41.45"/>
<path class="st2" d="M501.85,469.79c0,0-0.82,8.42-1.85,17.05c-1.03,8.63-2.88,15.21-2.88,15.21s-90.2-10.89-111.16-39.86"/>
<path class="st9" d="M256.57,244.91l-21.1,1.15l-3.76-8.4c0,0,2.98,0,3.78-2.11c0.8-2.11,0.87-3.2-0.36-8.28s-2.03-6.9-4.07-7.05
	s-3.63,0.65-3.63,0.65s-14.38-13.22-20.7-12.35c-6.32,0.87-21.5,10.31-21.5,10.31l-11.55,10.46c0,0,12.71,30.36,15.47,34.35
	s12.42,12.13,17.79,12.64s5.49-0.13,5.49-0.13s6.21,4.59,14.5,3.6c10.17-1.22,16.73-7.11,20-10.09s6.55-8.25,7.84-12.7
	C256.12,252.29,256.57,244.91,256.57,244.91z"/>
<path class="st7" d="M171.81,225.69c0,0,11.73,29.03,16.59,36.23c4.86,7.2,15.14,16.75,24.27,14.33c9.13-2.42,13.75-9.84,15.4-17.58
	"/>
<path class="st7" d="M228.01,221.27c0,0,3.16-2.88,5.15-0.02s4.11,12.28,2.2,14.4s-3.56,1.75-3.56,1.75l5.52,13.65"/>
<path class="st7" d="M235.29,245.74c0,0,17.65-0.68,22.46-0.57"/>
<path d="M229.86,220.17c0,0-0.97,7.29-4.14,8.44c-3.17,1.16-8.02-3.82-10.51-7c-2.5-3.18-5.07-10.34-17.15-2.54
	c-12.07,7.79-18.28,11.24-23.99,10.51c-6.75-0.86-8.82-7.94-9.57-12.75c-0.7-4.53,1.84-16.67,2.27-16.61
	c0.43,0.06,6.41,3.54,11.95,2.02s26.69-11.49,34.87-7.62c8.18,3.87,10.43,10.65,12.12,14.9
	C227.39,213.77,229.86,220.17,229.86,220.17z"/>
<circle cx="207.79" cy="238.77" r="1.58"/>
<circle cx="187.18" cy="246.02" r="1.58"/>
<line class="st7" x1="206.75" y1="227.33" x2="201.67" y2="235.02"/>
<path class="st7" d="M190.71,238.49c0,0-8.05,0.21-7,0.45"/>
<path class="st7" d="M197.54,246.32c0,0,1.52,3.76,1.58,6.36c0.07,2.6,0.05,4.37,0.05,4.37s2.16,0.37,4.91-1.2"/>
<path class="st7" d="M206.7,261.97c0,0,3.23-0.59,6.23-2.87s4.47-4.32,4.47-4.32s2.08,3.15,1.21,5.08c-0.87,1.93-3.86,0-3.86,0"/>
</svg>
